<svg width="70" height="70" viewBox="0 0 70 70" fill="none" xmlns="http://www.w3.org/2000/svg">
<path d="M28.75 50.625C28.75 54.0781 25.25 56.875 20.9375 56.875C16.625 56.875 13.125 54.0781 13.125 50.625C13.125 47.175 16.625 44.375 20.9375 44.375C25.25 44.375 28.75 47.175 28.75 50.625ZM56.875 44.375C56.875 47.8281 53.375 50.625 49.0625 50.625C44.75 50.625 41.25 47.8281 41.25 44.375C41.25 40.9219 44.75 38.125 49.0625 38.125C53.375 38.125 56.875 40.9219 56.875 44.375Z" fill="#7EB5A6"/>
<path fill-rule="evenodd" clip-rule="evenodd" d="M53.75 44.375V16.25H56.875V44.375H53.75ZM28.75 19.375V50.625H25.625V19.375H28.75Z" fill="#7EB5A6"/>
<path d="M25.625 19.0782C25.625 18.3035 25.9127 17.5564 26.4324 16.9818C26.9521 16.4073 27.6667 16.0463 28.4375 15.9688L53.4375 13.4688C53.872 13.4251 54.3109 13.473 54.7258 13.6094C55.1407 13.7458 55.5224 13.9676 55.8463 14.2606C56.1702 14.5536 56.4291 14.9112 56.6063 15.3104C56.7835 15.7095 56.875 16.1414 56.875 16.5782V19.375L25.625 22.5V19.0782Z" fill="#7EB5A6"/>
<rect x="1" y="1" width="68" height="68" rx="9" stroke="white" stroke-width="2"/>
</svg>
