<svg width="50" height="50" viewBox="0 0 50 50" fill="none" xmlns="http://www.w3.org/2000/svg">
<path fill-rule="evenodd" clip-rule="evenodd" d="M35 15C35.4925 14.3434 35.8508 13.5962 36.0545 12.8012C36.2582 12.0061 36.3033 11.1787 36.1872 10.3661C36.0711 9.55363 35.7961 8.77194 35.378 8.06569C34.9598 7.35945 34.4066 6.74248 33.75 6.25003C33.0934 5.75757 32.3462 5.39926 31.5511 5.19557C30.756 4.99187 29.9286 4.94677 29.1161 5.06284C28.3036 5.17891 27.5219 5.45389 26.8157 5.87206C26.1094 6.29023 25.4925 6.84342 25 7.50003C24.0054 6.17394 22.5248 5.29726 20.8839 5.06284C19.2429 4.82842 17.5761 5.25546 16.25 6.25003C14.9239 7.24459 14.0472 8.7252 13.8128 10.3661C13.5784 12.0071 14.0054 13.6739 15 15H8.125C6.4 15 5 16.4 5 18.125V19.375C5 21.1 6.4 22.5 8.125 22.5H23.125V15H26.875V22.5H41.875C43.6 22.5 45 21.1 45 19.375V18.125C45 16.4 43.6 15 41.875 15H35ZM32.5 11.25C32.5 11.9131 32.2366 12.549 31.7678 13.0178C31.2989 13.4866 30.663 13.75 30 13.75H27.5V11.25C27.5 10.587 27.7634 9.9511 28.2322 9.48226C28.7011 9.01342 29.337 8.75003 30 8.75003C30.663 8.75003 31.2989 9.01342 31.7678 9.48226C32.2366 9.9511 32.5 10.587 32.5 11.25ZM17.5 11.25C17.5 11.9131 17.7634 12.549 18.2322 13.0178C18.7011 13.4866 19.337 13.75 20 13.75H22.5V11.25C22.5 10.587 22.2366 9.9511 21.7678 9.48226C21.2989 9.01342 20.663 8.75003 20 8.75003C19.337 8.75003 18.7011 9.01342 18.2322 9.48226C17.7634 9.9511 17.5 10.587 17.5 11.25Z" fill="#7EB5A6"/>
<path d="M23.125 26.25H7.5V38.125C7.5 39.9484 8.22433 41.697 9.51364 42.9864C10.803 44.2757 12.5516 45 14.375 45H23.125V26.25ZM26.875 45V26.25H42.5V38.125C42.5 39.9484 41.7757 41.697 40.4864 42.9864C39.197 44.2757 37.4484 45 35.625 45H26.875Z" fill="#7EB5A6"/>
</svg>
