<svg width="70" height="70" viewBox="0 0 70 70" fill="none" xmlns="http://www.w3.org/2000/svg">
<path d="M34.9993 33.9584C33.618 33.9584 32.2933 33.4097 31.3165 32.4329C30.3397 31.4562 29.791 30.1314 29.791 28.7501C29.791 27.3687 30.3397 26.044 31.3165 25.0672C32.2933 24.0905 33.618 23.5417 34.9993 23.5417C36.3807 23.5417 37.7054 24.0905 38.6822 25.0672C39.6589 26.044 40.2077 27.3687 40.2077 28.7501C40.2077 29.4341 40.073 30.1113 39.8112 30.7432C39.5495 31.3751 39.1658 31.9493 38.6822 32.4329C38.1986 32.9166 37.6244 33.3002 36.9925 33.562C36.3606 33.8237 35.6833 33.9584 34.9993 33.9584M34.9993 14.1667C31.1316 14.1667 27.4223 15.7032 24.6874 18.4381C21.9525 21.173 20.416 24.8823 20.416 28.7501C20.416 39.6876 34.9993 55.8334 34.9993 55.8334C34.9993 55.8334 49.5827 39.6876 49.5827 28.7501C49.5827 24.8823 48.0462 21.173 45.3113 18.4381C42.5764 15.7032 38.8671 14.1667 34.9993 14.1667V14.1667Z" fill="#7EB5A6"/>
<rect x="1" y="1" width="68" height="68" rx="9" stroke="white" stroke-width="2"/>
</svg>
